<svg width="29" height="37" viewBox="0 0 29 37" fill="none" xmlns="http://www.w3.org/2000/svg">
<path d="M4.07894 36.2679C3.13287 36.2679 2.32297 35.931 1.64925 35.2573C0.975532 34.5836 0.638672 33.7737 0.638672 32.8276V15.6262C0.638672 14.6802 0.975532 13.8703 1.64925 13.1966C2.32297 12.5228 3.13287 12.186 4.07894 12.186H5.79908V8.7457C5.79908 6.36618 6.63765 4.33785 8.31478 2.66072C9.99191 0.983586 12.0202 0.14502 14.3998 0.14502C16.7793 0.14502 18.8076 0.983586 20.4847 2.66072C22.1619 4.33785 23.0004 6.36618 23.0004 8.7457V12.186H24.7206C25.6667 12.186 26.4766 12.5228 27.1503 13.1966C27.824 13.8703 28.1609 14.6802 28.1609 15.6262V32.8276C28.1609 33.7737 27.824 34.5836 27.1503 35.2573C26.4766 35.931 25.6667 36.2679 24.7206 36.2679H4.07894ZM4.07894 32.8276H24.7206V15.6262H4.07894V32.8276ZM14.3998 27.6672C15.3458 27.6672 16.1557 27.3303 16.8295 26.6566C17.5032 25.9829 17.84 25.173 17.84 24.2269C17.84 23.2809 17.5032 22.471 16.8295 21.7972C16.1557 21.1235 15.3458 20.7867 14.3998 20.7867C13.4537 20.7867 12.6438 21.1235 11.9701 21.7972C11.2964 22.471 10.9595 23.2809 10.9595 24.2269C10.9595 25.173 11.2964 25.9829 11.9701 26.6566C12.6438 27.3303 13.4537 27.6672 14.3998 27.6672ZM9.23935 12.186H19.5602V8.7457C19.5602 7.31226 19.0585 6.09383 18.0551 5.09041C17.0516 4.087 15.8332 3.58529 14.3998 3.58529C12.9663 3.58529 11.7479 4.087 10.7445 5.09041C9.74106 6.09383 9.23935 7.31226 9.23935 8.7457V12.186Z" fill="black"/>
</svg>
