<svg width="28" height="39" viewBox="0 0 28 39" fill="none" xmlns="http://www.w3.org/2000/svg">
<path d="M3.84359 38.0876C2.89752 38.0876 2.08762 37.7508 1.4139 37.077C0.74018 36.4033 0.40332 35.5934 0.40332 34.6474V15.7259C0.40332 14.7798 0.74018 13.9699 1.4139 13.2962C2.08762 12.6224 2.89752 12.2856 3.84359 12.2856H9.004V15.7259H3.84359V34.6474H24.4852V15.7259H19.3248V12.2856H24.4852C25.4313 12.2856 26.2412 12.6224 26.9149 13.2962C27.5886 13.9699 27.9255 14.7798 27.9255 15.7259V34.6474C27.9255 35.5934 27.5886 36.4033 26.9149 37.077C26.2412 37.7508 25.4313 38.0876 24.4852 38.0876H3.84359ZM12.4443 26.0467V6.82415L9.69206 9.57637L7.28387 7.12517L14.1644 0.244629L21.045 7.12517L18.6368 9.57637L15.8845 6.82415V26.0467H12.4443Z" fill="#5F6368"/>
</svg>
