<svg width="111" height="22" viewBox="0 0 111 22" fill="none" xmlns="http://www.w3.org/2000/svg">
<g clip-path="url(#clip0_16_4745)">
<path d="M0 0H13.9974V3.84202H4.46735V8.51781H12.2114V12.1814H4.46735V17.0056H14.3259V20.8476H0V0Z" fill="black"/>
<path d="M16.4102 0H30.1707V3.84202H20.8792V8.72625H28.5032V12.3898H20.8792V20.8476H16.4118V0H16.4102Z" fill="black"/>
<path d="M31.8667 0H36.334V12.0914C36.334 15.3981 37.5547 17.184 40.4145 17.184C43.2744 17.184 44.525 15.3964 44.525 12.0914V0H48.9924V11.8529C48.9924 17.7793 46.0441 21.026 40.4145 21.026C34.7849 21.026 31.8667 17.7793 31.8667 11.8529V0Z" fill="black"/>
<path d="M51.8223 20.8476V0H55.8727L64.719 13.1352V0H69.1264V20.8476H65.0459L56.2012 7.71405V20.8476H51.8239H51.8223Z" fill="black"/>
<path d="M72.0728 20.8476V0H79.6667C86.1602 0 90.4774 4.2589 90.4774 10.3938C90.4774 16.5287 86.1585 20.8476 79.6667 20.8476H72.0728ZM76.5401 17.124H79.6667C83.6572 17.124 85.8917 14.3542 85.8917 10.3938C85.8917 6.43338 83.6572 3.72196 79.6667 3.72196H76.5401V17.124Z" fill="black"/>
<path d="M92.5938 20.8476V0H100.188C106.681 0 110.998 4.2589 110.998 10.3938C110.998 16.5287 106.679 20.8476 100.188 20.8476H92.5938ZM97.0611 17.124H100.188C104.178 17.124 106.413 14.3542 106.413 10.3938C106.413 6.43338 104.178 3.72196 100.188 3.72196H97.0611V17.124Z" fill="black"/>
</g>
<defs>
<clipPath id="clip0_16_4745">
<rect width="111" height="21.0277" fill="white"/>
</clipPath>
</defs>
</svg>
